<svg width="250" height="250" viewBox="0 0 250 250" fill="none" xmlns="http://www.w3.org/2000/svg">
<path d="M18.26 119.09V87H23.53V119.09H18.26ZM21.88 106.99V102.41H29.9C31 102.41 31.97 102.19 32.81 101.75C33.65 101.31 34.31 100.68 34.8 99.87C35.29 99.06 35.53 98.1 35.53 97C35.53 95.9 35.28 94.95 34.8 94.13C34.31 93.32 33.64 92.69 32.81 92.25C31.97 91.81 31 91.59 29.9 91.59H21.88V87.01H30.18C32.2 87.01 34.01 87.42 35.61 88.25C37.22 89.07 38.48 90.24 39.42 91.73C40.35 93.23 40.82 94.98 40.82 97C40.82 99.02 40.35 100.78 39.42 102.27C38.49 103.77 37.22 104.93 35.61 105.75C34.01 106.57 32.2 106.99 30.18 106.99H21.88Z" fill="#FFFAF0"/>
<path d="M45.58 119.09V87H50.85V119.09H45.58ZM49.21 105.48V101.12H57.32C58.94 101.12 60.2 100.7 61.1 99.86C62 99.02 62.45 97.85 62.45 96.35C62.45 95.01 62.01 93.87 61.12 92.96C60.23 92.05 58.98 91.58 57.36 91.58H49.2V87H57.59C59.61 87 61.38 87.41 62.91 88.21C64.44 89.02 65.62 90.12 66.46 91.51C67.3 92.9 67.72 94.48 67.72 96.25C67.72 98.11 67.3 99.73 66.46 101.11C65.62 102.48 64.44 103.56 62.91 104.32C61.38 105.08 59.61 105.47 57.59 105.47H49.2L49.21 105.48ZM63.19 119.09L51.96 105.15L56.87 103.36L69.84 119.08H63.19V119.09Z" fill="#FFFAF0"/>
<path d="M73.73 119.09V87H79V119.09H73.73ZM77.35 91.82V87.01H95.09V91.82H77.35ZM77.35 105.02V100.39H93.76V105.02H77.35ZM77.35 119.09V114.28H95.32V119.09H77.35Z" fill="#FFFAF0"/>
<path d="M108.9 119.55C106.36 119.55 104.21 119.09 102.44 118.17C100.67 117.25 99.08 115.91 97.67 114.14L101.25 110.56C102.14 111.84 103.19 112.85 104.41 113.56C105.63 114.28 107.19 114.64 109.09 114.64C110.86 114.64 112.28 114.27 113.33 113.54C114.38 112.81 114.91 111.8 114.91 110.51C114.91 109.44 114.63 108.57 114.09 107.9C113.54 107.23 112.81 106.67 111.91 106.23C111.01 105.79 110.02 105.39 108.93 105.04C107.84 104.69 106.76 104.29 105.67 103.85C104.58 103.41 103.59 102.85 102.69 102.18C101.79 101.51 101.06 100.64 100.51 99.57C99.96 98.5 99.69 97.14 99.69 95.49C99.69 93.6 100.16 91.98 101.09 90.65C102.02 89.32 103.28 88.31 104.87 87.6C106.46 86.9 108.23 86.55 110.19 86.55C112.3 86.55 114.19 86.96 115.85 87.79C117.52 88.62 118.87 89.67 119.91 90.95L116.33 94.52C115.41 93.48 114.46 92.71 113.46 92.21C112.47 91.71 111.33 91.45 110.04 91.45C108.45 91.45 107.2 91.77 106.3 92.41C105.4 93.05 104.95 93.95 104.95 95.12C104.95 96.1 105.22 96.89 105.77 97.48C106.32 98.08 107.05 98.58 107.95 98.99C108.85 99.4 109.84 99.79 110.93 100.16C112.01 100.53 113.1 100.94 114.18 101.4C115.26 101.86 116.26 102.45 117.16 103.17C118.06 103.89 118.79 104.81 119.34 105.94C119.89 107.07 120.16 108.49 120.16 110.2C120.16 113.07 119.14 115.35 117.11 117.03C115.08 118.71 112.34 119.55 108.88 119.55H108.9Z" fill="#FFFAF0"/>
<path d="M121.69 91.82V87.01H147.87V91.82H121.69ZM132.14 119.09V87.92H137.41V119.09H132.14Z" fill="#FFFAF0"/>
<path d="M165.1 119.55C162.81 119.55 160.67 119.12 158.68 118.27C156.69 117.41 154.95 116.23 153.45 114.72C151.95 113.21 150.78 111.45 149.94 109.45C149.1 107.45 148.68 105.3 148.68 103.01C148.68 100.72 149.1 98.58 149.94 96.59C150.78 94.6 151.94 92.85 153.42 91.34C154.9 89.83 156.63 88.65 158.6 87.81C160.57 86.97 162.7 86.55 165 86.55C167.3 86.55 169.42 86.97 171.4 87.81C173.37 88.65 175.11 89.83 176.6 91.34C178.1 92.85 179.27 94.61 180.11 96.61C180.95 98.61 181.37 100.76 181.37 103.05C181.37 105.34 180.95 107.49 180.11 109.49C179.27 111.49 178.11 113.24 176.63 114.74C175.15 116.24 173.42 117.42 171.45 118.27C169.48 119.13 167.36 119.55 165.1 119.55ZM165.01 114.51C167.18 114.51 169.08 114.02 170.72 113.04C172.35 112.06 173.64 110.71 174.57 108.98C175.5 107.25 175.97 105.26 175.97 103C175.97 101.32 175.7 99.78 175.17 98.39C174.63 97 173.88 95.79 172.9 94.77C171.92 93.75 170.77 92.96 169.44 92.41C168.11 91.86 166.64 91.59 165.02 91.59C162.88 91.59 160.99 92.07 159.36 93.03C157.72 93.99 156.44 95.33 155.51 97.04C154.58 98.75 154.11 100.74 154.11 103C154.11 104.68 154.38 106.23 154.91 107.65C155.45 109.07 156.19 110.29 157.16 111.3C158.12 112.31 159.28 113.1 160.62 113.66C161.96 114.23 163.43 114.51 165.02 114.51H165.01Z" fill="#FFFAF0"/>
<path d="M87.21 161.71C84.92 161.71 82.78 161.28 80.79 160.43C78.8 159.57 77.06 158.39 75.56 156.88C74.06 155.37 72.89 153.61 72.05 151.61C71.21 149.61 70.79 147.46 70.79 145.17C70.79 142.88 71.21 140.74 72.05 138.75C72.89 136.76 74.05 135.01 75.53 133.5C77.01 131.99 78.74 130.81 80.71 129.97C82.68 129.13 84.81 128.71 87.11 128.71C89.41 128.71 91.53 129.13 93.51 129.97C95.48 130.81 97.22 131.99 98.71 133.5C100.21 135.01 101.38 136.77 102.22 138.77C103.06 140.77 103.48 142.92 103.48 145.21C103.48 147.5 103.06 149.65 102.22 151.65C101.38 153.65 100.22 155.4 98.74 156.9C97.26 158.4 95.53 159.58 93.56 160.43C91.59 161.29 89.47 161.71 87.21 161.71ZM87.12 156.67C89.29 156.67 91.19 156.18 92.83 155.2C94.46 154.22 95.75 152.87 96.68 151.14C97.61 149.41 98.08 147.42 98.08 145.16C98.08 143.48 97.81 141.94 97.28 140.55C96.74 139.16 95.99 137.95 95.01 136.93C94.03 135.91 92.88 135.12 91.55 134.57C90.22 134.02 88.75 133.75 87.13 133.75C84.99 133.75 83.1 134.23 81.47 135.19C79.83 136.15 78.55 137.49 77.62 139.2C76.69 140.91 76.22 142.9 76.22 145.16C76.22 146.84 76.49 148.39 77.02 149.81C77.56 151.23 78.3 152.45 79.27 153.46C80.23 154.47 81.39 155.26 82.73 155.82C84.07 156.39 85.54 156.67 87.13 156.67H87.12ZM101.88 163.46L87.44 149.02L90.83 145.63L105.27 160.07L101.88 163.46Z" fill="#FFFAF0"/>
<path d="M122.38 161.71C119.97 161.71 117.8 161.16 115.87 160.06C113.94 158.96 112.42 157.45 111.31 155.54C110.19 153.63 109.64 151.47 109.64 149.05V129.15H114.91V149C114.91 150.56 115.24 151.91 115.89 153.06C116.54 154.21 117.44 155.09 118.57 155.72C119.7 156.35 120.97 156.66 122.38 156.66C123.79 156.66 125.09 156.35 126.19 155.72C127.29 155.09 128.16 154.21 128.8 153.06C129.44 151.91 129.76 150.58 129.76 149.05V129.15H135.03V149.09C135.03 151.5 134.48 153.66 133.38 155.55C132.28 157.44 130.78 158.94 128.89 160.04C127 161.14 124.82 161.69 122.38 161.69V161.71Z" fill="#FFFAF0"/>
<path d="M141.63 161.26V129.17H146.9V161.26H141.63Z" fill="#FFFAF0"/>
<path d="M153.87 161.26V129.17H157.54L159.14 135.22V161.26H153.87ZM176.11 161.26L156.9 136.18L157.54 129.17L176.75 154.25L176.11 161.26ZM176.11 161.26L174.5 155.62V129.17H179.77V161.26H176.1H176.11Z" fill="#FFFAF0"/>
<path d="M207.37 87V101.9C207.37 104.25 204.39 105.26 202.97 103.39L190.41 86.99H186.74V129.15V135.41V161.24H192.01V146.34C192.01 143.99 194.99 142.98 196.41 144.85L208.97 161.25H212.64V119.09V112.95V87H207.37ZM207.37 117.83V144.07C207.37 146.42 204.39 147.43 202.97 145.56L192.52 131.92C192.19 131.49 192.01 130.97 192.01 130.43V104.2C192.01 101.85 194.99 100.84 196.41 102.71L206.86 116.35C207.19 116.78 207.37 117.3 207.37 117.84V117.83Z" fill="#FFFAF0"/>
<path d="M231.52 161.39H217.32V158.64H231.52V161.39ZM231.52 159.51H229.08V155.89C229.08 154.99 228.89 154.19 228.5 153.5C228.12 152.81 227.57 152.27 226.86 151.88C226.15 151.5 225.33 151.3 224.39 151.3C223.45 151.3 222.65 151.5 221.97 151.89C221.29 152.28 220.75 152.82 220.35 153.51C219.96 154.2 219.76 154.99 219.76 155.89V159.57H217.32V155.85C217.32 154.8 217.49 153.82 217.84 152.92C218.19 152.02 218.69 151.24 219.32 150.58C219.96 149.92 220.71 149.41 221.57 149.05C222.43 148.69 223.37 148.5 224.4 148.5C225.43 148.5 226.37 148.68 227.24 149.05C228.11 149.42 228.86 149.93 229.5 150.58C230.14 151.24 230.63 152.02 230.98 152.91C231.33 153.81 231.5 154.77 231.5 155.81V159.51H231.52Z" fill="#FFFAF0"/>
<path d="M231.52 145.73H217.32V142.98H231.52V145.73ZM219.74 143.72H217.32V135.96H219.74V143.72ZM225.46 143.72H223.1V136.55H225.46V143.72ZM231.52 143.72H229.1V135.86H231.52V143.72Z" fill="#FFFAF0"/>
<path d="M231.74 129.27C231.74 130.4 231.54 131.37 231.15 132.19C230.76 133.01 230.17 133.74 229.37 134.4L227.55 132.58C228.1 132.15 228.53 131.66 228.83 131.12C229.13 130.58 229.28 129.9 229.28 129.11C229.28 128.4 229.14 127.83 228.86 127.41C228.58 126.99 228.19 126.78 227.69 126.78C227.26 126.78 226.91 126.9 226.64 127.14C226.37 127.38 226.15 127.7 225.96 128.1C225.78 128.5 225.61 128.93 225.45 129.41C225.3 129.89 225.12 130.36 224.91 130.83C224.7 131.3 224.45 131.74 224.14 132.14C223.83 132.54 223.44 132.86 222.97 133.1C222.5 133.34 221.89 133.45 221.15 133.45C220.29 133.45 219.55 133.24 218.95 132.82C218.34 132.4 217.88 131.83 217.56 131.1C217.24 130.37 217.08 129.55 217.08 128.64C217.08 127.67 217.26 126.79 217.63 126C217.99 125.21 218.47 124.58 219.04 124.09L220.86 125.91C220.4 126.33 220.07 126.76 219.85 127.19C219.64 127.63 219.53 128.12 219.53 128.67C219.53 129.3 219.65 129.8 219.9 130.16C220.15 130.52 220.5 130.71 220.94 130.71C221.33 130.71 221.64 130.59 221.88 130.35C222.12 130.11 222.32 129.79 222.51 129.39C222.69 128.99 222.86 128.55 223.02 128.07C223.18 127.59 223.37 127.11 223.58 126.64C223.79 126.17 224.05 125.73 224.37 125.34C224.69 124.94 225.1 124.62 225.6 124.38C226.11 124.14 226.73 124.02 227.47 124.02C228.79 124.02 229.83 124.48 230.59 125.41C231.35 126.34 231.73 127.62 231.73 129.25L231.74 129.27Z" fill="#FFFAF0"/>
<path d="M231.52 121.32H217.32V118.57H231.52V121.32Z" fill="#FFFAF0"/>
<path d="M231.74 108.55C231.74 109.55 231.55 110.49 231.18 111.37C230.8 112.25 230.28 113.03 229.6 113.69C228.93 114.36 228.15 114.88 227.26 115.26C226.37 115.64 225.42 115.83 224.39 115.83C223.36 115.83 222.41 115.64 221.53 115.25C220.65 114.87 219.87 114.34 219.21 113.66C218.54 112.99 218.03 112.2 217.67 111.3C217.31 110.4 217.12 109.42 217.12 108.37C217.12 107.2 217.34 106.13 217.77 105.15C218.2 104.17 218.81 103.36 219.61 102.7L221.49 104.58C220.9 105.01 220.45 105.56 220.14 106.22C219.83 106.88 219.68 107.61 219.68 108.4C219.68 109.3 219.88 110.1 220.28 110.79C220.68 111.48 221.23 112.03 221.95 112.42C222.66 112.81 223.48 113.01 224.41 113.01C225.34 113.01 226.2 112.81 226.91 112.42C227.62 112.03 228.18 111.5 228.58 110.83C228.98 110.16 229.18 109.41 229.18 108.58C229.18 107.68 229.02 106.91 228.7 106.28C228.38 105.65 227.9 105.16 227.26 104.83C226.62 104.49 225.84 104.32 224.91 104.32L226.16 102.52L226.1 108.74H223.68V101.49H224.08C225.78 101.49 227.2 101.79 228.34 102.4C229.48 103.01 230.34 103.84 230.92 104.9C231.49 105.96 231.78 107.18 231.78 108.56L231.74 108.55Z" fill="#FFFAF0"/>
<path d="M231.52 98.82H217.32V96.9L220.09 96.07H231.52V98.82ZM231.52 89L220.63 97.42L217.32 96.9L228.21 88.46L231.52 89.01V89ZM231.52 89L228.85 89.79H217.32V87.04H231.52V89Z" fill="#FFFAF0"/>
</svg>
