<svg width="250" height="250" viewBox="0 0 250 250" fill="none" xmlns="http://www.w3.org/2000/svg">
<path d="M142.59 39.95V74.09C142.59 79.47 135.77 81.78 132.5 77.51L103.73 39.95H95.33V136.53V150.88V210.05H107.41V175.91C107.41 170.53 114.23 168.22 117.5 172.49L146.27 210.05H154.67V113.47V99.41V39.96H142.59V39.95ZM142.59 110.57V170.67C142.59 176.05 135.77 178.36 132.5 174.09L108.56 142.84C107.81 141.86 107.4 140.66 107.4 139.42V79.32C107.4 73.94 114.22 71.63 117.49 75.9L141.43 107.15C142.18 108.13 142.59 109.33 142.59 110.57Z" fill="#52C3C4"/>
</svg>
