<svg width="64" height="83" viewBox="0 0 64 83" fill="none" xmlns="http://www.w3.org/2000/svg">
<path d="M58.566 81.8075L18.4755 41.8578C14.9333 38.3597 12.317 34.9411 10.6265 31.602C9.01639 28.2629 8.21131 24.7648 8.21131 21.1078C8.21131 16.8942 9.09688 13.2371 10.8679 10.1365C12.7195 6.95642 15.2956 4.49186 18.5963 2.74282C21.8969 0.914272 25.6805 0 29.9472 0C32.7648 0 35.3812 0.397509 37.7963 1.19253C40.2114 1.98755 42.3849 3.14033 44.317 4.65087C46.3296 6.0819 48.0201 7.91045 49.3887 10.1365L46.6114 12.8793C44.5988 9.85824 42.1837 7.59243 39.3661 6.0819C36.629 4.49186 33.5296 3.69684 30.0679 3.69684C24.6742 3.69684 20.3271 5.32663 17.0265 8.58621C13.7258 11.7663 12.0755 16.0594 12.0755 21.4655C12.0755 24.7251 12.8 27.7462 14.2491 30.5287C15.6981 33.3113 18.234 36.4914 21.8566 40.069L64 81.8075H58.566ZM25.117 83C20.2868 83 15.9799 82.0062 12.1963 80.0187C8.41262 77.9516 5.43396 75.1691 3.26037 71.671C1.08679 68.1729 0 64.1581 0 59.6264C0 54.5383 1.36854 49.8477 4.10565 45.5546C6.84276 41.182 10.4654 37.9224 14.9736 35.7759L17.2679 38.3994C13.3233 40.1485 10.1032 43.0105 7.60758 46.9856C5.11198 50.8812 3.86416 55.0948 3.86416 59.6264C3.86416 63.4425 4.78998 66.8611 6.64155 69.8822C8.49312 72.8238 11.0289 75.1691 14.2491 76.9181C17.4692 78.5876 21.1321 79.4224 25.2378 79.4224C29.7459 79.4224 33.9321 78.3889 37.7963 76.3218C41.6604 74.1753 44.5988 71.2735 46.6114 67.6164L49.1472 70.1207C47.6176 72.7443 45.605 75.0498 43.1094 77.0374C40.6943 78.9454 37.9573 80.4162 34.8981 81.4497C31.839 82.4832 28.5787 83 25.117 83Z" fill="#52C3C4"/>
</svg>
