<svg width="25" height="25" viewBox="0 0 25 25" fill="none" xmlns="http://www.w3.org/2000/svg">
<path d="M3.43023 15.3199C3.24048 15.1234 3.13548 14.8603 3.13786 14.5872C3.14023 14.314 3.24978 14.0528 3.44291 13.8596C3.63605 13.6665 3.89731 13.557 4.17043 13.5546C4.44355 13.5522 4.70668 13.6572 4.90314 13.847L11.4584 20.4022L11.4584 2.08341C11.4584 1.80715 11.5681 1.5422 11.7634 1.34685C11.9588 1.15149 12.2238 1.04175 12.5 1.04175C12.7763 1.04175 13.0412 1.15149 13.2366 1.34685C13.4319 1.5422 13.5417 1.80715 13.5417 2.08341L13.5417 20.4022L20.0969 13.847C20.2934 13.6572 20.5565 13.5522 20.8296 13.5546C21.1027 13.557 21.364 13.6665 21.5571 13.8596C21.7503 14.0528 21.8598 14.314 21.8622 14.5872C21.8645 14.8603 21.7596 15.1234 21.5698 15.3199L13.2365 23.6532C13.1395 23.7497 13.0245 23.8262 12.8979 23.8782C12.772 23.9311 12.6367 23.9584 12.5 23.9584C12.3634 23.9584 12.2281 23.9311 12.1021 23.8782C11.9756 23.8262 11.8605 23.7497 11.7636 23.6532L3.43023 15.3199Z" fill="#FFFAF0"/>
</svg>
