<svg width="25" height="25" viewBox="0 0 25 25" fill="none" xmlns="http://www.w3.org/2000/svg">
<g clip-path="url(#clip0_28_426)">
<path d="M20.9072 16.9195C20.9025 17.1926 20.7907 17.4529 20.5958 17.6443C20.401 17.8358 20.1388 17.9431 19.8657 17.9431C19.5926 17.9431 19.3304 17.8358 19.1356 17.6443C18.9408 17.4529 18.8289 17.1926 18.8242 16.9195L18.8242 7.64903L5.87089 20.6023C5.67554 20.7977 5.41058 20.9074 5.13432 20.9074C4.85805 20.9074 4.5931 20.7977 4.39775 20.6023C4.2024 20.407 4.09265 20.142 4.09265 19.8658C4.09265 19.5895 4.2024 19.3245 4.39775 19.1292L17.3511 6.17589L8.0806 6.17589C7.8075 6.17114 7.5472 6.05932 7.35576 5.86452C7.16431 5.66972 7.05703 5.40751 7.05703 5.13438C7.05703 4.86125 7.16431 4.59904 7.35575 4.40424C7.5472 4.20943 7.8075 4.09762 8.08059 4.09287L19.8657 4.09287C20.0025 4.0932 20.1379 4.12049 20.2642 4.17316C20.3907 4.2248 20.5057 4.30118 20.6023 4.3978C20.6989 4.49443 20.7753 4.60938 20.8269 4.7359C20.8796 4.86216 20.9069 4.99757 20.9072 5.13438L20.9072 16.9195Z" fill="#FFFAF0"/>
</g>
<defs>
<clipPath id="clip0_28_426">
<rect width="25" height="25" fill="white"/>
</clipPath>
</defs>
</svg>
